<svg viewBox="0 0 200 200" xmlns="http://www.w3.org/2000/svg">
  <circle cx="100" cy="100" r="96" fill="#e6f2f1" />
  <!-- face outline -->
  <path d="M100 40c-30 0-48 22-48 55 0 35 22 60 48 60s48-25 48-60c0-33-18-55-48-55z"
        fill="none" stroke="#0f6e6e" stroke-width="7" stroke-linecap="round" stroke-linejoin="round" />
  <!-- ears -->
  <path d="M52 88c-10 0-16 8-16 17s6 15 16 15" fill="none" stroke="#0f6e6e" stroke-width="6" stroke-linecap="round" />
  <path d="M148 88c10 0 16 8 16 17s-6 15-16 15" fill="none" stroke="#0f6e6e" stroke-width="6" stroke-linecap="round" />
  <!-- nose -->
  <path d="M96 90c-2 12-6 20-6 28 0 6 4 9 10 9" fill="none" stroke="#0f6e6e" stroke-width="5" stroke-linecap="round" />
  <!-- mouth -->
  <path d="M82 140c8 8 28 8 36 0" fill="none" stroke="#0f6e6e" stroke-width="6" stroke-linecap="round" />
  <!-- eyes -->
  <circle cx="82" cy="95" r="4" fill="#0f6e6e" />
  <circle cx="118" cy="95" r="4" fill="#0f6e6e" />
</svg>
