<svg viewBox="0 0 200 200" xmlns="http://www.w3.org/2000/svg">
  <circle cx="100" cy="100" r="96" fill="#e6f2f1" />
  <!-- profile -->
  <path d="M70 45c30 0 48 20 52 40 8 2 14 9 14 17 0 9-7 16-16 17-2 14-10 26-22 33v18c0 6-5 10-11 10H72c-6 0-11-4-11-10v-14c-18-8-31-26-31-48 0-33 18-63 40-63z"
        fill="none" stroke="#0f6e6e" stroke-width="6" stroke-linecap="round" stroke-linejoin="round" />
  <circle cx="86" cy="90" r="4" fill="#0f6e6e" />
  <path d="M84 118c4 3 9 3 13 1" fill="none" stroke="#0f6e6e" stroke-width="4" stroke-linecap="round" />
  <!-- dashed contour guide (aesthetic surgery reference line) -->
  <path d="M55 70c-6 18-6 40 4 58" fill="none" stroke="#0f6e6e" stroke-width="3" stroke-dasharray="4 5" opacity="0.55" />
</svg>
